<svg width="24" height="24" viewBox="0 0 24 24" fill="none" xmlns="http://www.w3.org/2000/svg">
<rect width="24" height="24" fill="url(#paint0_linear)"/>
<g clip-path="url(#clip0)">
<path d="M19.6488 9.30906L18.4522 8.12213C18.0978 8.47654 17.6672 8.65387 17.1609 8.65387C16.6544 8.65387 16.224 8.47654 15.8696 8.12213C15.515 7.7676 15.3379 7.3372 15.3379 6.83071C15.3379 6.32418 15.5152 5.89378 15.8696 5.53921L14.6825 4.35228C14.4481 4.11814 14.1617 4.00101 13.8232 4.00101C13.4845 4.00101 13.1982 4.11818 12.9639 4.35228L4.35141 12.9553C4.1171 13.1896 4 13.4762 4 13.8146C4 14.1532 4.1171 14.4395 4.35141 14.6739L5.53834 15.8704C5.89287 15.516 6.32337 15.3387 6.8298 15.3387C7.33619 15.3387 7.76659 15.5158 8.12109 15.8704C8.47552 16.2249 8.65279 16.6553 8.65279 17.1618C8.65279 17.6683 8.47562 18.0985 8.12109 18.4532L9.31759 19.6496C9.55187 19.8838 9.83835 20.0009 10.177 20.0009C10.5157 20.0009 10.8022 19.8838 11.0363 19.6496L19.6488 11.0277C19.883 10.7935 20 10.5071 20 10.1684C20 9.82969 19.883 9.54334 19.6488 9.30906ZM17.0754 11.2081L11.2072 17.0762C11.0934 17.1904 10.9509 17.2473 10.7799 17.2473C10.6091 17.2473 10.4666 17.1904 10.3527 17.0762L6.9152 13.6391C6.79491 13.5186 6.73481 13.3762 6.73481 13.2118C6.73481 13.0472 6.79491 12.9046 6.9152 12.7843L12.7834 6.91611C12.8974 6.80214 13.0399 6.7451 13.2109 6.7451C13.3816 6.7451 13.5241 6.80214 13.6382 6.91611L17.0754 10.3535C17.1959 10.4738 17.256 10.6163 17.256 10.7809C17.2559 10.9454 17.1958 11.0878 17.0754 11.2081Z" fill="white"/>
<path d="M13.2111 7.77946L16.2118 10.78L10.7804 16.2114L7.77989 13.2108L13.2111 7.77946Z" fill="white" fill-opacity="0.78"/>
</g>
<defs>
<linearGradient id="paint0_linear" x1="12" y1="0" x2="12" y2="24" gradientUnits="userSpaceOnUse">
<stop stop-color="#FF337C"/>
<stop offset="1" stop-color="#A806F4"/>
</linearGradient>
<clipPath id="clip0">
<rect width="16" height="16" fill="white" transform="translate(4 4)"/>
</clipPath>
</defs>
</svg>
