<svg width="24" height="24" viewBox="0 0 24 24" fill="none" xmlns="http://www.w3.org/2000/svg">
<rect width="24" height="24" fill="url(#paint0_linear)"/>
<path d="M12 7.19757C9.35194 7.19757 7.19756 9.35195 7.19756 12C7.19756 14.6481 9.35194 16.8024 12 16.8024C14.6481 16.8024 16.8024 14.6481 16.8024 12C16.8024 9.35195 14.6481 7.19757 12 7.19757ZM12 16.4274C9.55872 16.4274 7.57256 14.4413 7.57256 12C7.57256 9.5587 9.55872 7.57257 12 7.57257C14.4413 7.57257 16.4274 9.5587 16.4274 12C16.4274 14.4413 14.4413 16.4274 12 16.4274Z" fill="white" fill-opacity="0.5"/>
<path d="M19.5844 10.7022L18.074 10.5564C17.918 9.90621 17.657 9.28579 17.3013 8.71959L18.2656 7.55575C18.2952 7.51998 18.3106 7.47446 18.3086 7.42802C18.3066 7.38159 18.2874 7.33754 18.2548 7.30444L16.7071 5.73684C16.6741 5.70348 16.6299 5.68368 16.583 5.68133C16.5362 5.67898 16.4902 5.69426 16.4541 5.72416L15.2889 6.68913C14.722 6.33519 14.1025 6.07367 13.4535 5.91437L13.3078 4.39516C13.3035 4.34804 13.2822 4.30409 13.2479 4.27159C13.2135 4.2391 13.1684 4.2203 13.1211 4.21875H10.8987C10.8514 4.22029 10.8064 4.23909 10.772 4.27158C10.7376 4.30408 10.7163 4.34803 10.7121 4.39516L10.5663 5.91078C9.91602 6.06772 9.29562 6.3296 8.72954 6.68613L7.56563 5.72331C7.52962 5.69358 7.48381 5.67836 7.43717 5.68063C7.39052 5.68289 7.3464 5.70248 7.31344 5.73556L5.74591 7.30334C5.71291 7.33639 5.69342 7.38055 5.69124 7.4272C5.68905 7.47385 5.70433 7.51964 5.7341 7.55562L6.69907 8.72094C6.34514 9.28776 6.08362 9.90727 5.92432 10.5563L4.41563 10.7022C4.36965 10.7068 4.32712 10.7286 4.29644 10.7632C4.26577 10.7978 4.24919 10.8426 4.25001 10.8888V13.1112C4.2492 13.1574 4.26578 13.2022 4.29645 13.2368C4.32713 13.2713 4.36966 13.2931 4.41563 13.2978L5.92613 13.4438C6.08215 14.094 6.34315 14.7144 6.69885 15.2806L5.73457 16.4443C5.70475 16.4802 5.68942 16.5259 5.69156 16.5726C5.69371 16.6192 5.71318 16.6634 5.74616 16.6964L7.31363 18.264C7.34664 18.297 7.39077 18.3165 7.43739 18.3187C7.48401 18.3209 7.52977 18.3056 7.56572 18.2758L8.73097 17.3109C9.29782 17.6648 9.91736 17.9263 10.5664 18.0856L10.7121 19.6048C10.7163 19.652 10.7376 19.6959 10.772 19.7284C10.8064 19.7609 10.8514 19.7797 10.8987 19.7812H13.1211C13.1684 19.7797 13.2135 19.7609 13.2479 19.7284C13.2823 19.6959 13.3036 19.652 13.3078 19.6048L13.4535 18.0892C14.1038 17.9323 14.7243 17.6704 15.2903 17.3138L16.4542 18.2768C16.4902 18.3065 16.536 18.3217 16.5826 18.3195C16.6293 18.3172 16.6734 18.2976 16.7063 18.2645L18.2739 16.6967C18.3069 16.6637 18.3264 16.6195 18.3286 16.5729C18.3308 16.5262 18.3155 16.4805 18.2858 16.4445L17.3208 15.2792C17.6748 14.7122 17.9363 14.0926 18.0956 13.4436L19.5844 13.2978C19.6304 13.2931 19.6729 13.2713 19.7036 13.2368C19.7342 13.2022 19.7508 13.1574 19.75 13.1112V10.8888C19.7508 10.8426 19.7342 10.7978 19.7036 10.7632C19.6729 10.7287 19.6304 10.7069 19.5844 10.7022V10.7022ZM19.375 12.9411L17.9209 13.0833C17.8816 13.0872 17.8446 13.1036 17.8153 13.13C17.7859 13.1564 17.7658 13.1915 17.7578 13.2302C17.6029 13.9287 17.3229 14.5935 16.9313 15.1923C16.9097 15.2258 16.8994 15.2653 16.9019 15.3051C16.9043 15.3449 16.9194 15.3829 16.9449 15.4135L17.8879 16.552L16.5618 17.8781L15.4234 16.9353C15.3923 16.9096 15.3538 16.8946 15.3135 16.8925C15.2732 16.8904 15.2334 16.9014 15.1998 16.9237C14.6035 17.3183 13.939 17.5984 13.2402 17.7497C13.2009 17.7596 13.1657 17.7815 13.1394 17.8124C13.113 17.8432 13.097 17.8815 13.0933 17.9219L12.9508 19.4062H11.069L10.9266 17.9219C10.9229 17.8819 10.9068 17.8441 10.8804 17.8138C10.854 17.7835 10.8188 17.7623 10.7798 17.7531C10.0811 17.5973 9.41647 17.3163 8.81785 16.9238C8.78445 16.9021 8.745 16.8916 8.70522 16.8938C8.66543 16.896 8.62739 16.9108 8.5966 16.9361L7.4581 17.8785L6.13182 16.5522L7.0746 15.4136C7.10034 15.3825 7.11537 15.344 7.11746 15.3037C7.11954 15.2634 7.10858 15.2235 7.08619 15.1899C6.69162 14.5937 6.41151 13.9291 6.26019 13.2303C6.25259 13.1918 6.23278 13.1567 6.2037 13.1302C6.17462 13.1038 6.1378 13.0874 6.09869 13.0835L4.62501 12.9409V11.0591L6.09869 10.9167C6.13803 10.9128 6.1751 10.8965 6.20449 10.8701C6.23388 10.8436 6.25405 10.8085 6.26207 10.7698C6.41699 10.0713 6.69704 9.40663 7.08869 8.80788C7.11023 8.77434 7.12053 8.73481 7.11808 8.69502C7.11563 8.65524 7.10056 8.61727 7.07507 8.58663L6.13204 7.44803L7.45807 6.12188L8.59651 7.06469C8.62757 7.0904 8.66609 7.10542 8.70637 7.10751C8.74664 7.1096 8.78651 7.09865 8.82007 7.07628C9.41633 6.68172 10.0808 6.40162 10.7796 6.25031C10.8189 6.24037 10.8542 6.21846 10.8805 6.18761C10.9068 6.15677 10.9229 6.11851 10.9265 6.07812L11.069 4.59375H12.9508L13.0932 6.07812C13.0969 6.11812 13.1131 6.15594 13.1395 6.18622C13.1659 6.2165 13.2011 6.23772 13.2403 6.24688C13.9389 6.40272 14.6036 6.68365 15.2022 7.07609C15.2356 7.09782 15.275 7.10833 15.3148 7.10612C15.3546 7.1039 15.3927 7.08908 15.4234 7.06378L16.5609 6.12212L17.8688 7.44712L16.9253 8.58653C16.8996 8.6176 16.8845 8.65615 16.8825 8.69644C16.8804 8.73673 16.8913 8.77662 16.9137 8.81019C17.3083 9.40646 17.5884 10.071 17.7397 10.7698C17.7473 10.8084 17.7671 10.8435 17.7962 10.87C17.8253 10.8965 17.8621 10.9129 17.9012 10.9168L19.375 11.0591V12.9411Z" fill="white" fill-opacity="0.5"/>
<path fill-rule="evenodd" clip-rule="evenodd" d="M13.5361 11.5256C13.5638 11.3808 13.6818 11.2909 13.7996 11.325C14.1541 11.4276 14.4446 11.5972 14.6515 11.8061C14.8543 12.0109 15 12.2798 15 12.5776C15 13.0928 14.6376 13.4884 14.2124 13.7384C13.7676 13.9999 13.1672 14.1598 12.5127 14.1598C11.9077 14.1598 11.35 14.0233 10.9187 13.7975C10.5014 13.579 10.1478 13.2464 10.0506 12.8104C10.0186 12.6669 10.0873 12.5186 10.204 12.4793C10.3208 12.4399 10.4413 12.5244 10.4733 12.6679C10.5157 12.858 10.7073 13.101 11.0904 13.3016C11.4595 13.4949 11.9575 13.6209 12.5127 13.6209C13.1144 13.6209 13.648 13.4728 14.0233 13.2522C14.4181 13.02 14.5617 12.7592 14.5617 12.5776C14.5617 12.503 14.5214 12.3722 14.3733 12.2226C14.2294 12.0772 14.0042 11.9379 13.6993 11.8497C13.5814 11.8156 13.5084 11.6705 13.5361 11.5256Z" fill="white"/>
<path fill-rule="evenodd" clip-rule="evenodd" d="M9.96606 9.86118C9.57169 10.0693 9.43835 10.3065 9.43835 10.4793C9.43835 10.6607 9.58137 10.9209 9.97436 11.1525C10.348 11.3727 10.8794 11.5205 11.4786 11.5205C12.0779 11.5205 12.6093 11.3727 12.9829 11.1525C13.3759 10.9209 13.5189 10.6607 13.5189 10.4793C13.5189 10.3065 13.3856 10.0693 12.9912 9.86118C12.617 9.66372 12.0832 9.53897 11.4786 9.53897C10.8741 9.53897 10.3403 9.66372 9.96606 9.86118ZM9.79325 9.36588C10.2359 9.13234 10.8318 9 11.4786 9C12.1255 9 12.7214 9.13234 13.164 9.36588C13.5865 9.5888 13.9572 9.95646 13.9572 10.4793C13.9572 10.9936 13.5962 11.3887 13.1723 11.6385C12.7291 11.8997 12.1308 12.0594 11.4786 12.0594C10.8265 12.0594 10.2282 11.8997 9.78495 11.6385C9.36107 11.3887 9.00007 10.9936 9.00007 10.4793C9.00007 9.95646 9.37076 9.58879 9.79325 9.36588Z" fill="white"/>
<path fill-rule="evenodd" clip-rule="evenodd" d="M10.262 12.3606C10.383 12.3606 10.4811 12.4813 10.4811 12.6301C10.4811 12.8076 10.6228 13.0655 11.0165 13.2957C11.3903 13.5142 11.9219 13.6609 12.5214 13.6609C13.1209 13.6609 13.6525 13.5142 14.0263 13.2957C14.42 13.0655 14.5617 12.8076 14.5617 12.6301C14.5617 12.4813 14.6598 12.3606 14.7808 12.3606C14.9019 12.3606 15 12.4813 15 12.6301V13.4703C15 13.9907 14.6346 14.3723 14.2108 14.6084C13.7678 14.8552 13.1707 15 12.5214 15C11.8722 15 11.2751 14.8552 10.832 14.6084C10.4082 14.3723 10.0429 13.9907 10.0429 13.4703V12.6301C10.0429 12.4813 10.141 12.3606 10.262 12.3606ZM10.4868 13.5347C10.5163 13.7066 10.6649 13.9236 11.0129 14.1175C11.3867 14.3257 11.9193 14.461 12.5214 14.461C13.1236 14.461 13.6562 14.3257 14.03 14.1175C14.3779 13.9236 14.5265 13.7066 14.556 13.5347C14.4519 13.6288 14.3357 13.7115 14.2145 13.7824C13.7714 14.0415 13.1733 14.1998 12.5214 14.1998C11.8695 14.1998 11.2714 14.0415 10.8283 13.7824C10.7071 13.7115 10.5909 13.6288 10.4868 13.5347Z" fill="white"/>
<path fill-rule="evenodd" clip-rule="evenodd" d="M9.97368 11.1953C10.3475 11.4138 10.8791 11.5605 11.4786 11.5605C12.0781 11.5605 12.6097 11.4138 12.9835 11.1953C13.3772 10.9651 13.5189 10.7072 13.5189 10.5297H13.9571V11.3699C13.9571 11.8903 13.5918 12.2719 13.168 12.508C12.7249 12.7548 12.1278 12.8996 11.4786 12.8996C10.8293 12.8996 10.2322 12.7548 9.78916 12.508C9.36537 12.2719 9 11.8903 9 11.3699V10.5297H9.43828C9.43828 10.7072 9.57995 10.9651 9.97368 11.1953ZM9.44394 11.4343C9.47348 11.6062 9.62208 11.8232 9.97002 12.0171C10.3438 12.2253 10.8764 12.3606 11.4786 12.3606C12.0807 12.3606 12.6133 12.2253 12.9871 12.0171C13.3351 11.8232 13.4837 11.6062 13.5132 11.4343C13.4091 11.5284 13.2928 11.6112 13.1716 11.682C12.7286 11.9411 12.1305 12.0995 11.4786 12.0995C10.8267 12.0995 10.2286 11.9411 9.7855 11.682C9.66429 11.6112 9.54808 11.5284 9.44394 11.4343Z" fill="white"/>
<defs>
<linearGradient id="paint0_linear" x1="-2.5" y1="-4" x2="12" y2="24" gradientUnits="userSpaceOnUse">
<stop stop-color="#FF337C"/>
<stop offset="1" stop-color="#A806F4"/>
</linearGradient>
</defs>
</svg>
